<svg fill="#303131" viewBox="0 0 512 512" xmlns="http://www.w3.org/2000/svg" stroke="#ffffff">
    <g id="SVGRepo_bgCarrier" stroke-width="0"></g>
    <g id="SVGRepo_tracerCarrier" stroke-linecap="round" stroke-linejoin="round"></g>
    <g id="SVGRepo_iconCarrier">
        <title>ionicons-v5-i</title>
        <path d="M204,240H68a36,36,0,0,1-36-36V68A36,36,0,0,1,68,32H204a36,36,0,0,1,36,36V204A36,36,0,0,1,204,240Z"></path>
        <path d="M444,240H308a36,36,0,0,1-36-36V68a36,36,0,0,1,36-36H444a36,36,0,0,1,36,36V204A36,36,0,0,1,444,240Z"></path>
        <path d="M204,480H68a36,36,0,0,1-36-36V308a36,36,0,0,1,36-36H204a36,36,0,0,1,36,36V444A36,36,0,0,1,204,480Z"></path>
        <path d="M444,480H308a36,36,0,0,1-36-36V308a36,36,0,0,1,36-36H444a36,36,0,0,1,36,36V444A36,36,0,0,1,444,480Z"></path>
    </g>
</svg>